<svg xmlns="http://www.w3.org/2000/svg" width="20.323" height="16.3" viewBox="0 0 20.323 16.3">
  <g id="Actor" transform="translate(0.155 0.149)">
    <path id="Path_93" data-name="Path 93" d="M336.745,299.748a.521.521,0,0,0-.261-.424,12.021,12.021,0,0,0-11.5,0,.515.515,0,0,0-.261.424c0,.014-.009.229-.009.585a1,1,0,0,1-.372-.051.471.471,0,0,0-.6.335.521.521,0,0,0,.312.643,1.9,1.9,0,0,0,.614.1c.022,0,.045-.007.07-.007.025.548.076,1.2.172,1.92a1.231,1.231,0,0,0-.366.178c-.048.031-.1.068-.178.11a2.85,2.85,0,0,0-1.116,3.665.487.487,0,0,0,.337.277.425.425,0,0,0,.092.01.447.447,0,0,0,.315-.13,8.393,8.393,0,0,1,1.546-1.143c.776,2.5,2.262,4.9,5.105,5.466a.366.366,0,0,0,.086.007.732.732,0,0,0,.086-.007c6.413-1.276,5.935-11.856,5.929-11.962Zm-11.55,5.524a9.721,9.721,0,0,0-1.253.839,1.751,1.751,0,0,1,.865-1.639c.1-.055.172-.1.232-.144.013-.01.022-.014.032-.021.057.308.121.619.2.934l-.073.031Zm5.538,5.408c-4.959-1.075-5.1-8.95-5.067-10.573a11.118,11.118,0,0,1,10.134,0C335.825,301.73,335.692,309.605,330.733,310.68Z" transform="translate(-316.754 -295.716)" fill="#d02f27" stroke="#d02f27" stroke-width="0.3"/>
    <path id="Path_94" data-name="Path 94" d="M384.891,354.834a.453.453,0,0,0,.674,0,.538.538,0,0,0,0-.725,1.943,1.943,0,0,0-2.894,0,.538.538,0,0,0,0,.725.454.454,0,0,0,.674,0A1.062,1.062,0,0,1,384.891,354.834Z" transform="translate(-372.302 -347.301)" fill="#d02f27" stroke="#d02f27" stroke-width="0.3"/>
    <path id="Path_95" data-name="Path 95" d="M448.476,353.46a1.956,1.956,0,0,0-1.447.647.538.538,0,0,0,0,.726.454.454,0,0,0,.674,0,1.062,1.062,0,0,1,1.546,0,.453.453,0,0,0,.674,0,.538.538,0,0,0,0-.726A1.957,1.957,0,0,0,448.476,353.46Z" transform="translate(-432.338 -347.299)" fill="#d02f27" stroke="#d02f27" stroke-width="0.3"/>
    <path id="Path_96" data-name="Path 96" d="M404.733,406.811a8.176,8.176,0,0,1-3.944,0,.45.45,0,0,0-.413.1.526.526,0,0,0-.178.414,2.567,2.567,0,1,0,5.128,0,.541.541,0,0,0-.178-.414A.442.442,0,0,0,404.733,406.811Zm-1.972,2.177a1.606,1.606,0,0,1-1.473-1.023,9.219,9.219,0,0,0,2.942,0A1.6,1.6,0,0,1,402.76,408.988Z" transform="translate(-388.782 -396.78)" fill="#d02f27" stroke="#d02f27" stroke-width="0.3"/>
    <path id="Path_97" data-name="Path 97" d="M239.494,281.326c-4.428.544-7.57-5.665-8.2-7.03a12,12,0,0,1,3.966-3.607,11.086,11.086,0,0,1,5.022-1.438c.067.127.153.3.254.52a.461.461,0,0,0,.639.229.531.531,0,0,0,.213-.688c-.22-.472-.372-.75-.429-.849a.468.468,0,0,0-.407-.246h-.006a12.02,12.02,0,0,0-5.729,1.561,13,13,0,0,0-4.469,4.162.549.549,0,0,0-.051.507c.035.082,3.4,7.94,8.652,7.94a5.275,5.275,0,0,0,.652-.041.507.507,0,0,0,.42-.568.48.48,0,0,0-.524-.451Z" transform="translate(-230.255 -268.217)" fill="#d02f27" stroke="#d02f27" stroke-width="0.3"/>
    <path id="Path_98" data-name="Path 98" d="M278.877,345.866a1.165,1.165,0,0,1-.538.691,1,1,0,0,1-.833.079.47.47,0,0,0-.6.335.521.521,0,0,0,.312.643,1.908,1.908,0,0,0,1.562-.147,2.16,2.16,0,0,0,1.005-1.294.521.521,0,0,0-.312-.643.471.471,0,0,0-.6.335Z" transform="translate(-273.754 -339.92)" fill="#d02f27" stroke="#d02f27" stroke-width="0.3"/>
  </g>
</svg>
