<svg xmlns="http://www.w3.org/2000/svg" width="12" height="24" viewBox="0 0 12 24">
  <path id="icons8-facebook-f" d="M17.817,10.4H15.053V8c0-1.238.1-2.018,1.8-2.018h1A1.176,1.176,0,0,0,19,4.782v-1.5a1.184,1.184,0,0,0-1.062-1.206Q16.9,2,15.85,2c-3.121,0-5.4,1.988-5.4,5.639V10.4H8.15A1.176,1.176,0,0,0,7,11.6V14a1.176,1.176,0,0,0,1.15,1.2h2.3v9.6A1.176,1.176,0,0,0,11.6,26h2.3a1.176,1.176,0,0,0,1.15-1.2V15.2h2.5A1.169,1.169,0,0,0,18.7,14.132l.263-2.4A1.182,1.182,0,0,0,17.817,10.4Z" transform="translate(-7 -2)" fill="#101223"/>
</svg>
