<svg xmlns="http://www.w3.org/2000/svg" xmlns:xlink="http://www.w3.org/1999/xlink" width="24" height="24" viewBox="0 0 24 24">
  <defs>
    <radialGradient id="radial-gradient" cx="0.372" cy="1.001" r="1.247" gradientUnits="objectBoundingBox">
      <stop offset="0" stop-color="#fd5"/>
      <stop offset="0.328" stop-color="#ff543f"/>
      <stop offset="0.348" stop-color="#fc5245"/>
      <stop offset="0.504" stop-color="#e64771"/>
      <stop offset="0.643" stop-color="#d53e91"/>
      <stop offset="0.761" stop-color="#cc39a4"/>
      <stop offset="0.841" stop-color="#c837ab"/>
    </radialGradient>
    <radialGradient id="radial-gradient-2" cx="0.161" cy="-0.012" r="0.828" gradientTransform="translate(0 -0.004) scale(1 0.666)" gradientUnits="objectBoundingBox">
      <stop offset="0" stop-color="#4168c9"/>
      <stop offset="0.999" stop-color="#4168c9" stop-opacity="0"/>
    </radialGradient>
  </defs>
  <g id="insta" transform="translate(-5.99 -5.99)">
    <path id="Path_106" data-name="Path 106" d="M24.665,29.977l-13.326.013A5.347,5.347,0,0,1,6,24.665L5.99,11.339A5.347,5.347,0,0,1,11.315,6L24.641,5.99a5.347,5.347,0,0,1,5.336,5.325l.013,13.326A5.345,5.345,0,0,1,24.665,29.977Z" fill="url(#radial-gradient)"/>
    <path id="Path_107" data-name="Path 107" d="M24.665,29.977l-13.326.013A5.347,5.347,0,0,1,6,24.665L5.99,11.339A5.347,5.347,0,0,1,11.315,6L24.641,5.99a5.347,5.347,0,0,1,5.336,5.325l.013,13.326A5.345,5.345,0,0,1,24.665,29.977Z" fill="url(#radial-gradient-2)"/>
    <path id="Path_108" data-name="Path 108" d="M21.664,26.328a4.664,4.664,0,1,1,4.664-4.664A4.67,4.67,0,0,1,21.664,26.328Zm0-8A3.332,3.332,0,1,0,25,21.664,3.335,3.335,0,0,0,21.664,18.333Z" transform="translate(-3.674 -3.674)" fill="#fff"/>
    <circle id="Ellipse_4" data-name="Ellipse 4" cx="0.999" cy="0.999" r="0.999" transform="translate(21.988 11.993)" fill="#fff"/>
    <path id="Path_109" data-name="Path 109" d="M23.66,28.324h-8A4.67,4.67,0,0,1,11,23.66v-8A4.67,4.67,0,0,1,15.664,11h8a4.67,4.67,0,0,1,4.664,4.664v8A4.67,4.67,0,0,1,23.66,28.324Zm-8-15.992a3.335,3.335,0,0,0-3.332,3.332v8a3.335,3.335,0,0,0,3.332,3.332h8a3.335,3.335,0,0,0,3.332-3.332v-8a3.335,3.335,0,0,0-3.332-3.332Z" transform="translate(-1.672 -1.672)" fill="#fff"/>
  </g>
</svg>
