<svg xmlns="http://www.w3.org/2000/svg" width="164" height="100" viewBox="0 0 164 100">
  <g id="mainLogo" transform="translate(-823.795 -62.647)">
    <path id="Path_30" data-name="Path 30" d="M21.776,36.89a.9.9,0,0,1,.625.233.815.815,0,0,1,.273.622V40.2a.738.738,0,0,1-.273.622.782.782,0,0,1-.625.272h-3.9V61.124a1.052,1.052,0,0,1-1.015,1.011H14.669a1.056,1.056,0,0,1-.742-.311.971.971,0,0,1-.312-.7V41.208H9.71a.857.857,0,0,1-.859-.895V37.863a.818.818,0,0,1,.859-.856Z" transform="translate(848.486 77.245)" fill="#d02f27"/>
    <path id="Path_31" data-name="Path 31" d="M26.261,38.891a.978.978,0,0,0-.7-.311H23.371a.978.978,0,0,0-.7.311,1.048,1.048,0,0,0-.312.739v9.452H16.967V39.63a1.126,1.126,0,0,0-.312-.739.939.939,0,0,0-.7-.272H13.726a.939.939,0,0,0-.7.272,1.087,1.087,0,0,0-.273.739V56.24a.974.974,0,0,0,.976.972h2.226a1.013,1.013,0,0,0,1.015-.972V53.323h5.35V56.24a1.013,1.013,0,0,0,1.015.972h2.109a1.013,1.013,0,0,0,1.015-.972V39.63a.932.932,0,0,0-.312-.739" transform="translate(859.815 82.129)" fill="#393939"/>
    <path id="Path_33" data-name="Path 33" d="M28.737,36.89a.976.976,0,0,1,.664.428,1.01,1.01,0,0,1,.273.622v2.451a.854.854,0,0,1-.273.622.821.821,0,0,1-.625.272h-7.81v6.3h7.81a1.017,1.017,0,0,1,.625.272.932.932,0,0,1,.273.622v2.451a1.009,1.009,0,0,1-.273.622.978.978,0,0,1-.625.233h-7.81v6.3h7.81a.821.821,0,0,1,.625.272.932.932,0,0,1,.273.622V61.4a.854.854,0,0,1-.273.622.821.821,0,0,1-.625.272H17.687a.822.822,0,0,1-.625-.272.854.854,0,0,1-.273-.622V38.057a1.008,1.008,0,0,1,.117-.739.978.978,0,0,1,.625-.233Z" transform="translate(871.474 77.245)" fill="#d02f27"/>
    <path id="Path_34" data-name="Path 34" d="M35.064,38.854h0a.94.94,0,0,0-.664-.233H21.475a.939.939,0,0,0-.7.272,1.126,1.126,0,0,0-.312.739v16.61a1.013,1.013,0,0,0,1.015,1.011h2.187a.974.974,0,0,0,1.015-1.011V53.324H31.12v3.112a1.053,1.053,0,0,0,.976.817h2.187A1.013,1.013,0,0,0,35.3,56.242V39.515a1.087,1.087,0,0,0-.273-.661m-10.387,3.89h6.443v6.263h-6.4Z" transform="translate(882.211 82.243)" fill="#d02f27"/>
    <path id="Path_35" data-name="Path 35" d="M38.23,38.852a1.017,1.017,0,0,0-.664-.272H25.54a.821.821,0,0,0-.586.272.777.777,0,0,0-.273.622v2.451a.935.935,0,0,0,.859.895h3.9V56.24a.271.271,0,0,0,0,.194,1.014,1.014,0,0,0,.976.817h2.187a.974.974,0,0,0,1.015-1.011V42.82h3.9a1.017,1.017,0,0,0,.664-.272.97.97,0,0,0,.234-.622V39.475a.893.893,0,0,0-.234-.622" transform="translate(894.469 82.129)" fill="#393939"/>
    <path id="Path_36" data-name="Path 36" d="M42.395,37.434h0a1.048,1.048,0,0,1,.234.661v9.841l-1.367,1.75,1.367,1.75v9.88a.97.97,0,0,1-.234.622h0a.861.861,0,0,1-.664.272H39.622A1.052,1.052,0,0,1,38.607,61.2V51.749H32.828V61.2a1.052,1.052,0,0,1-1.015,1.011H29.626a.978.978,0,0,1-.7-.311.854.854,0,0,1-.312-.7V37.862a.854.854,0,0,1,.312-.7.978.978,0,0,1,.7-.311H41.848a.939.939,0,0,1,.664.233h0m-3.9,3.89H32.828v6.3H38.49Z" transform="translate(905.885 77.128)" fill="#393939"/>
    <path id="Path_37" data-name="Path 37" d="M44.725,36.89a.9.9,0,0,1,.625.233.815.815,0,0,1,.273.622V40.2a.738.738,0,0,1-.273.622.782.782,0,0,1-.625.272h-7.81v6.3h7.81a.939.939,0,0,1,.625.272.777.777,0,0,1,.273.622v2.451a.816.816,0,0,1-.273.622.9.9,0,0,1-.625.233h-7.81v6.3h7.81a.935.935,0,0,1,.9.895V61.2a.738.738,0,0,1-.273.622.782.782,0,0,1-.625.272H33.518a.821.821,0,0,1-.625-.272.854.854,0,0,1-.273-.622V37.863a1.009,1.009,0,0,1,.273-.622.978.978,0,0,1,.625-.233Z" transform="translate(917.534 77.245)" fill="#393939"/>
    <path id="Path_32" data-name="Path 32" d="M125.433,61.722H125.2c-3.319,3.267-6.365,6.379-9.411,9.686a5.665,5.665,0,0,1,.312-1.128,11.372,11.372,0,0,0,.508-1.323c1.562-4.357,2.811-7.78,3.9-10.347a.853.853,0,0,0,0-.622.624.624,0,0,0-.43-.389,1.137,1.137,0,0,0-.625,0,.86.86,0,0,0-.547.311c-.273.35-.586.817-.976,1.439s-.742,1.089-1.015,1.478-.547.817-.9,1.323l-1.015,1.439a21.068,21.068,0,0,1-2.772,3.19l-.7.583a2.815,2.815,0,0,1-.82.467.823.823,0,0,1-.508,0,.549.549,0,0,1-.39,0,.7.7,0,0,1,0-.428,3.332,3.332,0,0,1,0-.583,3.263,3.263,0,0,1,0-.389,6.561,6.561,0,0,1,.39-1.05,23.956,23.956,0,0,1,1.132-2.84c.664-1.634,1.171-2.84,1.484-3.89a.7.7,0,0,0,0-.817,1.213,1.213,0,0,0-.859-.35.7.7,0,0,0-.7.467h0l-1.757,2.8c-.937,1.439-1.679,2.606-2.343,3.54s-1.289,1.828-1.952,2.645l-.351.428-.39.467-.39.428-.429.506-.43.389h0l-.43.35-.469.272-.547.272a2.745,2.745,0,0,1-.547,0,.941.941,0,0,1-.586,0l-.469-.272-.351-.428v-.233h0a4.5,4.5,0,0,1-.7-2.1,16.434,16.434,0,0,1,.547-4.746c.43-1.712,1.171-3.89,2.187-6.924l3.514-9.336q.43-1.011,1.171-3.034l1.132-3.034h2.187a27.49,27.49,0,0,1,5.31.272c1.171.272,1.913,0,2.733.233h1.913a1.292,1.292,0,0,0,.586-.194.389.389,0,0,0,.234-.35.427.427,0,0,0-.2-.35,1.369,1.369,0,0,0-.547-.233,1.567,1.567,0,0,0-.586,0h-3.9a41.778,41.778,0,0,1-5.467-.272h-1.874c.781-2.062,1.679-4.473,2.655-7.2a.7.7,0,0,0,0-.895,1.1,1.1,0,0,0-.937-.272.858.858,0,0,0-.7.661c-.625,1.673-1.562,4.2-2.85,7.546-2.89-.233-5.232-.35-6.99-.428a.547.547,0,0,0-.39.233.659.659,0,0,0,0,.467.43.43,0,0,0,.43.233c1.484,0,3.9.194,6.716.272-2.46,6.574-4.217,11.4-5.232,14.392a74.156,74.156,0,0,0-2.187,7.391,2.782,2.782,0,0,1-.273,1.478c-.9.661-1.64,1.245-2.343,1.712a19.532,19.532,0,0,1-1.991,1.323,14.974,14.974,0,0,1-2.109,1.167,5.8,5.8,0,0,1-1.874.584,1.685,1.685,0,0,1-1.21,0c-.469-.311-.508-1.128,0-2.49a27.51,27.51,0,0,1,1.25-3.345l.508-1.128c.234-.467.43-.934.586-1.323a8.7,8.7,0,0,0,.469-1.128.853.853,0,0,0,0-.817.978.978,0,0,0-.742-.272.821.821,0,0,0-.7.389,20.855,20.855,0,0,0-1.718,3.5h0a4.2,4.2,0,0,0-.273.7h0c-2.03,2.373-4.686,5.524-7.81,9.413L77.092,75.1l-3.9,4.668-3.241,3.89q-7.029,8.4-11.714,13.42-6.794,7.352-12.1,12.214c-1.952,1.789-3.9,3.384-5.74,4.862a56.008,56.008,0,0,1-5.662,3.89,28.2,28.2,0,0,1-4.959,2.373,21.122,21.122,0,0,1-2.343.622h-4.53l-1.015-.233h-.625l-.9-.506h0l-.43-.35-.7-.778h-.2l-.312-.428-.586-.895c0-.311-.39-.622-.547-.934l-.2-.428v-.428a12.414,12.414,0,0,1-.7-2.139,8.885,8.885,0,0,1-.273-1.089h0v-5.64a24.069,24.069,0,0,1,.234-2.567,50.866,50.866,0,0,1,1.21-5.874,80.008,80.008,0,0,1,4.451-12.564,143.713,143.713,0,0,1,6.755-13.42c1.64-4.668,4.412-8.869,7.5-13.614a141.732,141.732,0,0,1,8.9-12.1c3.085-3.851,6.052-7.274,8.9-10.386q2.46-2.49,4.217-4.2l1.991-1.789.976-.817.39-.311.43-.389a33.811,33.811,0,0,1,3.514-2.49l1.562-.895h.2l.7-.233.664-.233h1.679l.312.311h0V25.9h0v.7h0v.428a4.964,4.964,0,0,1-.312,1.128,2.289,2.289,0,0,1-.234.7h0v.622l-.586,1.284-.781,1.634-.625,1.284c-.664,1.4-1.8,3.462-3.358,6.146-2.226,3.89-3.9,6.846-5.037,8.674-.273.545-.976,1.673-2.03,3.423L55.42,56.276c-.7,1.128-1.406,2.256-2.07,3.384h0c.586-.972,1.64-2.567,3.085-4.823l3.358-5.251,2.929-4.707c1.171-1.906,2.187-3.656,3.163-5.212,0,0,.43-.778,1.093-1.867l1.289-2.178,1.015-1.789c.469-.856.859-1.595,1.171-2.256s.625-1.284.9-1.984a13.508,13.508,0,0,0,2.3-.7,6.669,6.669,0,0,0,.312-1.089,4.572,4.572,0,0,0,0-1.789,2.839,2.839,0,0,0-.976-1.478,3.559,3.559,0,0,0-1.679-.817,6.31,6.31,0,0,0-2.811.233,19.561,19.561,0,0,0-3.124,1.4c-1.132.661-2.3,1.439-3.592,2.373l-2.03,1.634-2.03,1.789A103.7,103.7,0,0,0,48.9,40.172c-3.085,3.5-6.17,7.313-9.254,11.475S33.553,60.01,30.7,64.561s-5.584,9.3-7.81,13.615a119.758,119.758,0,0,0-5.857,13.5,59.444,59.444,0,0,0-3.085,12.292,28.445,28.445,0,0,0,.39,10.619,15.84,15.84,0,0,0,1.913,4.4,10.792,10.792,0,0,0,3.085,3.267,9.271,9.271,0,0,0,2.07,1.011,8.856,8.856,0,0,0,2.265.35,13.993,13.993,0,0,0,2.226,0,14.77,14.77,0,0,0,2.265-.545,24.367,24.367,0,0,0,5.311-2.49,51.074,51.074,0,0,0,5.467-3.89c1.952-1.556,3.9-3.229,5.818-5.018s3.9-3.89,6.131-5.99c3.475-3.579,7.5-8.013,12.1-13.381Q67.33,87.278,74.28,78.681c1.132-1.4,2.772-3.423,4.842-6.068l4.412-5.485,2.5-3.112a1.2,1.2,0,0,1,0,.311,3.271,3.271,0,0,1-.273.934v.856a3.489,3.489,0,0,0,.351,1.906,2.454,2.454,0,0,0,.664.739l.469.272h.625a6.309,6.309,0,0,0,1.21,0,3.914,3.914,0,0,0,1.054-.389,5.4,5.4,0,0,0,.937-.428l.937-.428a40.959,40.959,0,0,0,4.373-3.073,7.162,7.162,0,0,0,.7-.817,11.2,11.2,0,0,0,0,2.956,6.128,6.128,0,0,0,.625,2.295.969.969,0,0,0,0,.272,5.44,5.44,0,0,0,.39.622l.43.506.39.272a2.385,2.385,0,0,0,.547.272,2.468,2.468,0,0,0,1.054,0,3.248,3.248,0,0,0,1.835-.739A15.985,15.985,0,0,0,103.878,69l.937-1.128a43.626,43.626,0,0,0,2.5-3.579c1.093-1.673,1.367-2.178,1.991-3.267a.886.886,0,0,1-.273.778,6.469,6.469,0,0,0-.273.739l-.312.778a7.322,7.322,0,0,0-.234.7,4.189,4.189,0,0,0-.234.778,7.758,7.758,0,0,0-.234,1.089,3.876,3.876,0,0,0,0,.972,2.017,2.017,0,0,0,.273.972h0a1.518,1.518,0,0,0,.312.389,1.288,1.288,0,0,0,.586.428h.234a1.254,1.254,0,0,0,.547,0,1.371,1.371,0,0,0,.547,0,3.127,3.127,0,0,0,.625-.311,4.255,4.255,0,0,0,.664-.506,6.008,6.008,0,0,0,.742-.661l.742-.895c.273-.311.781-.972,1.523-2.023s1.952-2.879,3.124-4.823c-.7,1.867-1.718,4.551-2.968,8.052l-2.655,8.091-1.289,1.478c-1.952,2.217-3.9,4.4-5.467,6.574-.7.934-1.289,1.789-1.8,2.567a12.662,12.662,0,0,0-1.21,2.412,4.73,4.73,0,0,0-.234,1.167,2.558,2.558,0,0,0,0,1.089,2.141,2.141,0,0,0,.7.856.706.706,0,0,0,.273,0,2.935,2.935,0,0,0,3.319-1.128,8.719,8.719,0,0,0,1.25-1.556,13.565,13.565,0,0,0,.976-1.595l.937-1.75a124.215,124.215,0,0,0,5.31-12.525l2.89-3.112c.351-.428,1.484-1.634,3.319-3.618s3.28-3.5,4.217-4.59V61.6M108.877,82.96c-.508,1.206-.976,2.217-1.445,3.112a19.434,19.434,0,0,1-1.445,2.451A5.684,5.684,0,0,1,104.7,90a1.094,1.094,0,0,1-.586.311.549.549,0,0,1-.43,0h-.234a.583.583,0,0,1-.273-.467,3.024,3.024,0,0,1,.273-1.4,9.59,9.59,0,0,1,.781-1.789c.351-.622.664-1.128.9-1.478l1.093-1.556a78.97,78.97,0,0,1,5.037-6.34c-.9,2.256-1.679,4.2-2.382,5.757" transform="translate(862.363 38.993)" fill="#d02f27"/>
    <path id="Path_38" data-name="Path 38" d="M79.577,23.28h1.392a.694.694,0,0,0,.616-.747.77.77,0,0,0,0-.24h-.161l-.455-.133-1.044-.267h-.562a8.383,8.383,0,0,0-3.8.48,16.385,16.385,0,0,0-6.479,4.561C65.842,30.8,65.307,33.654,62.737,34a4.048,4.048,0,0,1-4.177-2,2.365,2.365,0,0,1,.187-1.734,4.38,4.38,0,0,0,.187-.427.372.372,0,0,0,0-.16,7.151,7.151,0,0,0,.91-5.2.714.714,0,1,0-1.392.32c1.1,4.721-4.846,10.135-13.386,12.082S29,36.642,27.8,31.921c-.8-3.387,2.088-7.174,6.961-9.761h0a12.519,12.519,0,0,0,1.606,1.334l.723.453a8.273,8.273,0,0,0,5.542,1.04,8.462,8.462,0,0,0,5.355-3.521l.134-.187a12.549,12.549,0,0,0,.937-1.654c.161-.32.295-.667.428-1.013s.348-1.093.509-1.68a10,10,0,0,0,.214-1.147,16.659,16.659,0,0,0,0-5.014c-.134-.72-.321-1.44-.509-2.134h0a3.666,3.666,0,0,0-.4-1.147,1.072,1.072,0,0,0-1.178-.64L31.546,9.544a1.041,1.041,0,0,0-.883,1.013,16.233,16.233,0,0,0,.214,3.387A15.307,15.307,0,0,0,33.9,20.8c-4.391,2.427-7.255,5.841-7.55,9.2v.347a.668.668,0,0,1-.375.427h-.428a46.539,46.539,0,0,0-7.229,2.667,13.551,13.551,0,0,0-7.095,6.8,15.1,15.1,0,0,0-.964,4.561q0,.92,0,1.84a15.276,15.276,0,0,0,.268,2.08c.107.693.214,1.44.348,2.134s.187,1.307.268,1.974a5.308,5.308,0,0,1,0,1.147,5.314,5.314,0,0,1,0,.933,2.139,2.139,0,0,1-.134.907h0a5.535,5.535,0,0,1-.669,1.707v.133a3.818,3.818,0,0,1-.535.613l-.616.533h0a.72.72,0,0,0-.294.507.665.665,0,0,0,.161.56L9.218,60a5.909,5.909,0,0,0,4.337.72l.643-.133a7.325,7.325,0,0,0,2.222-.933,7.385,7.385,0,0,0,.669-.56h0a.934.934,0,0,0,.214-.267h0a5.326,5.326,0,0,0,.428-.88v.267c-.268.853-.509,1.707-.723,2.667a36.19,36.19,0,0,0-.75,11.255,18.29,18.29,0,0,0,.268,2.4,10.566,10.566,0,0,0,.214,1.947,14.968,14.968,0,0,0,.428,2.667,17.492,17.492,0,0,0,.455,1.867.723.723,0,0,0,.7.507h.187a.693.693,0,0,0,.509-.88c-.134-.507-.294-1.12-.428-1.76s-.295-1.574-.428-2.48v-.133a36.321,36.321,0,0,1-.294-4.481,32.663,32.663,0,0,1,1.633-10.4,21.285,21.285,0,0,1,.857-2.32,26.417,26.417,0,0,1,1.633-3.254,20.1,20.1,0,0,1,1.232-1.947,21.81,21.81,0,0,1,2.517-3.014l.4-.4a17.326,17.326,0,0,1,12.128-5.334,16.9,16.9,0,0,1,10.87,4.107l.4.347.937.853c.375.373.91,1.013,1.446,1.654l.482.587c.669.827,1.232,1.574,1.232,1.574l.375.587A31.564,31.564,0,0,1,58.426,71.66a.827.827,0,0,0,.616.773.722.722,0,0,0,.83-.72A33.21,33.21,0,0,0,55.7,54.831c-.241-.427-.509-.853-.776-1.254l-.616-.96-.295-.4a7.694,7.694,0,0,1-.776-1.707,7.973,7.973,0,0,1-.455-4.321l.161-.4a.826.826,0,0,1,.214-.4,3.013,3.013,0,0,1,.348-.533l.187-.213.161-.16a4.339,4.339,0,0,1,1.1-.72,3.41,3.41,0,0,1,1.044-.32h0a5.671,5.671,0,0,1,1.9,0h1.526a20.747,20.747,0,0,0,3.32-.24,8.931,8.931,0,0,0,5.355-2.427,22.244,22.244,0,0,0,2.677-3.814c1.687-2.667,3.373-5.174,5.194-7.654a13.359,13.359,0,0,1,3.079-3.147h0l.321-.213.268-.16,1.178-.56a.638.638,0,0,0-.134-.427.777.777,0,0,0-.562-.293h-.723a.537.537,0,0,1-.348,0h0a.533.533,0,0,1-.187-.427h0a.694.694,0,0,1,.535-.613M23.059,45.043q0,.107,0,.213c-.723,1.147-1.392,2.32-2.008,3.494a38.684,38.684,0,0,0-2.677,7.334h0a23.3,23.3,0,0,0,0-4.534c0-1.013-.161-2.08-.161-3.12a12.753,12.753,0,0,1,0-1.76v-.453a3.376,3.376,0,0,1,4.364-2.24h0a.883.883,0,0,1,.348.293.744.744,0,0,1,0,.747" transform="translate(814.909 57.416)" fill="#393939"/>
  </g>
</svg>
