<svg xmlns="http://www.w3.org/2000/svg" xmlns:xlink="http://www.w3.org/1999/xlink" width="20" height="20" viewBox="0 0 20 20">
  <defs>
    <clipPath id="clip-path">
      <rect id="Rectangle_357" data-name="Rectangle 357" width="20" height="20" transform="translate(1092 -92)" fill="#fff"/>
    </clipPath>
  </defs>
  <g id="Mask_Group_12" data-name="Mask Group 12" transform="translate(-1092 92)" clip-path="url(#clip-path)">
    <path id="X" d="M181.541,163.261a1.267,1.267,0,0,0-1.791,0l-7.338,7.338-7.338-7.338a1.267,1.267,0,0,0-1.792,1.792l7.338,7.338-7.338,7.338a1.267,1.267,0,0,0,1.792,1.791l7.338-7.338,7.338,7.338a1.267,1.267,0,0,0,1.791-1.791L174.2,172.39l7.338-7.338a1.267,1.267,0,0,0,0-1.792Z" transform="translate(930.088 -253.89)"/>
  </g>
</svg>
