<svg id="profile-2user" xmlns="http://www.w3.org/2000/svg" width="20" height="20" viewBox="0 0 20 20">
  <path id="Vector" d="M3.833,7.392a1.515,1.515,0,0,0-.275,0,3.7,3.7,0,1,1,.275,0Z" transform="translate(3.8 1.667)" fill="none" stroke="#d02f27" stroke-linecap="round" stroke-linejoin="round" stroke-width="1.5"/>
  <path id="Vector-2" data-name="Vector" d="M.108,0A2.915,2.915,0,0,1,3.025,2.917,2.921,2.921,0,0,1,.217,5.833a.941.941,0,0,0-.217,0" transform="translate(13.567 3.333)" fill="none" stroke="#d02f27" stroke-linecap="round" stroke-linejoin="round" stroke-width="1.5"/>
  <path id="Vector-3" data-name="Vector" d="M1.513,1.144C-.5,2.494-.5,4.694,1.513,6.035a8.138,8.138,0,0,0,8.342,0c2.017-1.35,2.017-3.55,0-4.892A8.177,8.177,0,0,0,1.513,1.144Z" transform="translate(1.954 10.99)" fill="none" stroke="#d02f27" stroke-linecap="round" stroke-linejoin="round" stroke-width="1.5"/>
  <path id="Vector-4" data-name="Vector" d="M0,5a4.031,4.031,0,0,0,1.633-.725,2.111,2.111,0,0,0,0-3.558A4.145,4.145,0,0,0,.025,0" transform="translate(15.283 11.667)" fill="none" stroke="#d02f27" stroke-linecap="round" stroke-linejoin="round" stroke-width="1.5"/>
  <path id="Vector-5" data-name="Vector" d="M0,0H20V20H0Z" transform="translate(20 20) rotate(180)" fill="none" opacity="0"/>
</svg>
