<svg xmlns="http://www.w3.org/2000/svg" width="114" height="70" viewBox="0 0 114 70">
  <g id="secondaryNavLogo" transform="translate(-823.795 -62.647)">
    <path id="Path_30" data-name="Path 30" d="M17.835,36.89a.623.623,0,0,1,.434.163.573.573,0,0,1,.19.436V39.2a.518.518,0,0,1-.19.436.542.542,0,0,1-.434.191H15.12V53.854a.734.734,0,0,1-.706.708h-1.52a.732.732,0,0,1-.516-.218.682.682,0,0,1-.217-.49V39.913H9.448a.6.6,0,0,1-.6-.626V37.571a.571.571,0,0,1,.6-.6Z" transform="translate(838.26 61.798)" fill="#d02f27"/>
    <path id="Path_31" data-name="Path 31" d="M22.142,38.8a.678.678,0,0,0-.489-.218h-1.52a.678.678,0,0,0-.489.218.736.736,0,0,0-.217.517v6.617H15.682V39.315a.791.791,0,0,0-.217-.517.65.65,0,0,0-.489-.191H13.429a.65.65,0,0,0-.489.191.764.764,0,0,0-.19.517V50.942a.68.68,0,0,0,.679.681h1.547a.707.707,0,0,0,.706-.681V48.9H19.4v2.042a.707.707,0,0,0,.706.681h1.466a.707.707,0,0,0,.706-.681V39.315a.654.654,0,0,0-.217-.517" transform="translate(844.946 64.71)" fill="#fff"/>
    <path id="Path_33" data-name="Path 33" d="M25.087,36.89a.678.678,0,0,1,.461.3.709.709,0,0,1,.19.436v1.715a.6.6,0,0,1-.19.436.569.569,0,0,1-.434.191H19.685v4.411h5.429a.7.7,0,0,1,.434.191.654.654,0,0,1,.19.436V46.72a.709.709,0,0,1-.19.436.677.677,0,0,1-.434.163H19.685V51.73h5.429a.569.569,0,0,1,.434.191.654.654,0,0,1,.19.436v1.688a.6.6,0,0,1-.19.436.569.569,0,0,1-.434.191H17.405a.569.569,0,0,1-.434-.191.6.6,0,0,1-.19-.436V37.707a.71.71,0,0,1,.081-.517.677.677,0,0,1,.434-.163Z" transform="translate(851.827 61.798)" fill="#d02f27"/>
    <path id="Path_34" data-name="Path 34" d="M30.611,38.784h0a.65.65,0,0,0-.461-.163H21.166a.65.65,0,0,0-.489.191.791.791,0,0,0-.217.517V50.955a.707.707,0,0,0,.706.708h1.52a.68.68,0,0,0,.706-.708V48.913H27.87v2.178a.734.734,0,0,0,.679.572h1.52a.707.707,0,0,0,.706-.708V39.247a.764.764,0,0,0-.19-.463m-7.22,2.723h4.479v4.384H23.391Z" transform="translate(858.164 64.778)" fill="#d02f27"/>
    <path id="Path_35" data-name="Path 35" d="M34.1,38.771a.7.7,0,0,0-.461-.191h-8.36a.569.569,0,0,0-.407.191.545.545,0,0,0-.19.436v1.715a.653.653,0,0,0,.6.626h2.714v9.394a.191.191,0,0,0,0,.136.706.706,0,0,0,.679.572h1.52a.68.68,0,0,0,.706-.708V41.548H33.61a.7.7,0,0,0,.461-.191.682.682,0,0,0,.163-.436V39.206a.627.627,0,0,0-.163-.436" transform="translate(865.398 64.71)" fill="#fff"/>
    <path id="Path_36" data-name="Path 36" d="M38.192,37.259h0a.737.737,0,0,1,.163.463v6.889l-.95,1.225.95,1.225v6.916a.682.682,0,0,1-.163.436h0a.6.6,0,0,1-.461.191H36.265a.734.734,0,0,1-.706-.708V47.279H31.542V53.9a.734.734,0,0,1-.706.708h-1.52a.678.678,0,0,1-.489-.218.6.6,0,0,1-.217-.49V37.558a.6.6,0,0,1,.217-.49.678.678,0,0,1,.489-.218h8.5a.65.65,0,0,1,.461.163h0m-2.714,2.723H31.542v4.411h3.936Z" transform="translate(872.135 61.729)" fill="#fff"/>
    <path id="Path_37" data-name="Path 37" d="M41.034,36.89a.623.623,0,0,1,.434.163.573.573,0,0,1,.19.436V39.2a.518.518,0,0,1-.19.436.542.542,0,0,1-.434.191H35.606v4.411h5.429a.65.65,0,0,1,.434.191.545.545,0,0,1,.19.436v1.715a.573.573,0,0,1-.19.436.623.623,0,0,1-.434.163H35.606v4.411h5.429a.652.652,0,0,1,.624.626v1.688a.518.518,0,0,1-.19.436.542.542,0,0,1-.434.191h-7.79a.569.569,0,0,1-.434-.191.6.6,0,0,1-.19-.436V37.571a.709.709,0,0,1,.19-.436.677.677,0,0,1,.434-.163Z" transform="translate(879.01 61.798)" fill="#fff"/>
    <path id="Path_32" data-name="Path 32" d="M91.346,50.3h-.163c-2.307,2.287-4.424,4.466-6.541,6.78a3.988,3.988,0,0,1,.217-.79,8,8,0,0,0,.353-.926c1.086-3.05,1.954-5.446,2.714-7.243a.6.6,0,0,0,0-.436.435.435,0,0,0-.3-.272.785.785,0,0,0-.434,0,.6.6,0,0,0-.38.218c-.19.245-.407.572-.679,1.007s-.516.762-.706,1.035-.38.572-.624.926L84.1,51.608a14.719,14.719,0,0,1-1.927,2.233l-.489.408a1.953,1.953,0,0,1-.57.327.569.569,0,0,1-.353,0,.379.379,0,0,1-.271,0,.492.492,0,0,1,0-.3,2.35,2.35,0,0,1,0-.408,2.3,2.3,0,0,1,0-.272,4.612,4.612,0,0,1,.271-.735,16.84,16.84,0,0,1,.787-1.988c.461-1.144.814-1.988,1.031-2.723a.491.491,0,0,0,0-.572.84.84,0,0,0-.6-.245.489.489,0,0,0-.489.327h0l-1.221,1.96c-.651,1.007-1.167,1.824-1.629,2.478s-.9,1.28-1.357,1.852l-.244.3-.271.327-.271.3-.3.354-.3.272h0l-.3.245-.326.191-.38.191a1.9,1.9,0,0,1-.38,0,.65.65,0,0,1-.407,0l-.326-.191-.244-.3v-.163h0A3.165,3.165,0,0,1,73.051,54a11.58,11.58,0,0,1,.38-3.322c.3-1.2.814-2.723,1.52-4.847L77.394,39.3q.3-.708.814-2.124L79,35.053h1.52a18.977,18.977,0,0,1,3.691.191c.814.191,1.33,0,1.9.163h1.33a.894.894,0,0,0,.407-.136.272.272,0,0,0,.163-.245.3.3,0,0,0-.136-.245.948.948,0,0,0-.38-.163,1.082,1.082,0,0,0-.407,0H84.37a28.84,28.84,0,0,1-3.8-.191h-1.3c.543-1.443,1.167-3.131,1.846-5.037a.491.491,0,0,0,0-.626.758.758,0,0,0-.651-.191.6.6,0,0,0-.489.463c-.434,1.171-1.086,2.941-1.981,5.282-2.009-.163-3.637-.245-4.859-.3a.38.38,0,0,0-.271.163.464.464,0,0,0,0,.327.3.3,0,0,0,.3.163c1.031,0,2.714.136,4.669.191-1.71,4.6-2.931,7.978-3.637,10.075a52.186,52.186,0,0,0-1.52,5.174,1.959,1.959,0,0,1-.19,1.035c-.624.463-1.14.871-1.629,1.2a13.572,13.572,0,0,1-1.384.926A10.388,10.388,0,0,1,68,54.086a4.008,4.008,0,0,1-1.3.408,1.164,1.164,0,0,1-.841,0c-.326-.218-.353-.79,0-1.743a19.344,19.344,0,0,1,.869-2.342l.353-.79c.163-.327.3-.654.407-.926a6.111,6.111,0,0,0,.326-.79.6.6,0,0,0,0-.572.677.677,0,0,0-.516-.191.57.57,0,0,0-.489.272,14.643,14.643,0,0,0-1.194,2.451h0a2.949,2.949,0,0,0-.19.49h0c-1.411,1.661-3.257,3.867-5.429,6.589l-2.253,2.723-2.714,3.267-2.253,2.723q-4.886,5.881-8.143,9.394Q39.91,80.2,36.218,83.6c-1.357,1.253-2.714,2.369-3.99,3.4a38.923,38.923,0,0,1-3.936,2.723,19.545,19.545,0,0,1-3.447,1.661,14.6,14.6,0,0,1-1.629.436H20.068l-.706-.163h-.434l-.624-.354h0l-.3-.245-.489-.545h-.136l-.217-.3-.407-.626c0-.218-.271-.436-.38-.653l-.136-.3v-.3a8.733,8.733,0,0,1-.489-1.5,6.255,6.255,0,0,1-.19-.762h0V82.132a16.963,16.963,0,0,1,.163-1.8,35.825,35.825,0,0,1,.841-4.112,56.267,56.267,0,0,1,3.094-8.795,100.878,100.878,0,0,1,4.7-9.394c1.14-3.267,3.067-6.208,5.211-9.53a99.177,99.177,0,0,1,6.189-8.468c2.144-2.7,4.207-5.092,6.189-7.27q1.71-1.743,2.931-2.941l1.384-1.253L46.94,28l.271-.218.3-.272a23.5,23.5,0,0,1,2.443-1.743l1.086-.626h.136l.489-.163.461-.163h1.167l.217.218h0v.191h0v.49h0v.3a3.494,3.494,0,0,1-.217.79,1.61,1.61,0,0,1-.163.49h0v.436l-.407.9-.543,1.144-.434.9c-.461.98-1.249,2.423-2.334,4.3-1.547,2.723-2.714,4.792-3.5,6.072-.19.381-.679,1.171-1.411,2.4l-1.819,3.05c-.489.79-.977,1.579-1.439,2.369h0c.407-.681,1.14-1.8,2.144-3.376l2.334-3.676,2.036-3.295c.814-1.334,1.52-2.56,2.2-3.649,0,0,.3-.545.76-1.307l.9-1.525.706-1.253c.326-.6.6-1.116.814-1.579s.434-.9.624-1.389a9.341,9.341,0,0,0,1.6-.49,4.693,4.693,0,0,0,.217-.762,3.223,3.223,0,0,0,0-1.253,1.988,1.988,0,0,0-.679-1.035,2.467,2.467,0,0,0-1.167-.572,4.357,4.357,0,0,0-1.954.163,13.551,13.551,0,0,0-2.171.98c-.787.463-1.6,1.007-2.5,1.661l-1.411,1.144L44.28,28.9a72.353,72.353,0,0,0-6.134,6.317c-2.144,2.451-4.289,5.119-6.433,8.033S27.478,49.1,25.5,52.289s-3.881,6.508-5.429,9.53A84.14,84.14,0,0,0,16,71.267a41.85,41.85,0,0,0-2.144,8.6,20.048,20.048,0,0,0,.271,7.434,11.128,11.128,0,0,0,1.33,3.077A7.533,7.533,0,0,0,17.6,92.669a6.426,6.426,0,0,0,1.439.708,6.117,6.117,0,0,0,1.574.245,9.661,9.661,0,0,0,1.547,0,10.207,10.207,0,0,0,1.574-.381A16.885,16.885,0,0,0,27.424,91.5a35.508,35.508,0,0,0,3.8-2.723c1.357-1.089,2.714-2.26,4.044-3.513s2.714-2.723,4.261-4.193c2.416-2.505,5.211-5.609,8.414-9.367q3.013-3.513,7.844-9.53c.787-.98,1.927-2.4,3.366-4.248l3.067-3.839,1.737-2.178a.845.845,0,0,1,0,.218,2.3,2.3,0,0,1-.19.654v.6a2.457,2.457,0,0,0,.244,1.334,1.714,1.714,0,0,0,.461.517l.326.191h.434a4.356,4.356,0,0,0,.841,0,2.708,2.708,0,0,0,.733-.272,3.741,3.741,0,0,0,.651-.3l.651-.3a28.471,28.471,0,0,0,3.04-2.151,5,5,0,0,0,.489-.572,7.9,7.9,0,0,0,0,2.069,4.313,4.313,0,0,0,.434,1.606.683.683,0,0,0,0,.191,3.813,3.813,0,0,0,.271.436l.3.354.271.191a1.653,1.653,0,0,0,.38.191,1.7,1.7,0,0,0,.733,0,2.249,2.249,0,0,0,1.276-.517,11.139,11.139,0,0,0,1.059-.953l.651-.79c.407-.49.977-1.334,1.737-2.505s.95-1.525,1.384-2.287a.623.623,0,0,1-.19.545,4.546,4.546,0,0,0-.19.517l-.217.545a5.156,5.156,0,0,0-.163.49,2.948,2.948,0,0,0-.163.545,5.463,5.463,0,0,0-.163.762,2.732,2.732,0,0,0,0,.681,1.419,1.419,0,0,0,.19.681h0a1.061,1.061,0,0,0,.217.272.9.9,0,0,0,.407.3h.163a.866.866,0,0,0,.38,0,.947.947,0,0,0,.38,0,2.168,2.168,0,0,0,.434-.218,2.959,2.959,0,0,0,.461-.354,4.186,4.186,0,0,0,.516-.463l.516-.626c.19-.218.543-.681,1.059-1.416s1.357-2.015,2.171-3.376C85.456,50,84.75,51.88,83.881,54.331l-1.846,5.664-.9,1.035c-1.357,1.552-2.714,3.077-3.8,4.6-.489.653-.9,1.253-1.249,1.8a8.888,8.888,0,0,0-.841,1.688,3.331,3.331,0,0,0-.163.817,1.8,1.8,0,0,0,0,.762,1.5,1.5,0,0,0,.489.6.487.487,0,0,0,.19,0,2.032,2.032,0,0,0,2.307-.79,6.1,6.1,0,0,0,.869-1.089A9.509,9.509,0,0,0,79.62,68.3l.651-1.225a87.281,87.281,0,0,0,3.691-8.768l2.009-2.178c.244-.3,1.031-1.144,2.307-2.532s2.28-2.451,2.931-3.213v-.163M79.837,65.168c-.353.844-.679,1.552-1,2.178a13.627,13.627,0,0,1-1,1.715,3.971,3.971,0,0,1-.9,1.035.759.759,0,0,1-.407.218.379.379,0,0,1-.3,0h-.163a.409.409,0,0,1-.19-.327,2.13,2.13,0,0,1,.19-.98,6.738,6.738,0,0,1,.543-1.253c.244-.436.461-.79.624-1.035l.76-1.089a55.22,55.22,0,0,1,3.5-4.438c-.624,1.579-1.167,2.941-1.656,4.03" transform="translate(846.45 38.993)" fill="#d02f27"/>
    <path id="Path_38" data-name="Path 38" d="M58.025,18.346h.968a.485.485,0,0,0,.428-.523.542.542,0,0,0,0-.168h-.112l-.316-.093-.726-.187h-.391a5.79,5.79,0,0,0-2.643.336,11.39,11.39,0,0,0-4.5,3.192c-2.252,2.707-2.624,4.7-4.411,4.947a2.807,2.807,0,0,1-2.9-1.4,1.666,1.666,0,0,1,.13-1.214,3.077,3.077,0,0,0,.13-.3.262.262,0,0,0,0-.112,5.036,5.036,0,0,0,.633-3.641.5.5,0,1,0-.968.224c.763,3.3-3.368,7.094-9.305,8.457s-11.166-.168-12-3.473c-.558-2.371,1.452-5.022,4.839-6.833h0a8.716,8.716,0,0,0,1.117.933l.5.317a5.717,5.717,0,0,0,3.852.728,5.88,5.88,0,0,0,3.722-2.464l.093-.131a8.8,8.8,0,0,0,.651-1.158c.112-.224.2-.467.3-.709s.242-.765.354-1.176a7.041,7.041,0,0,0,.149-.8,11.742,11.742,0,0,0,0-3.51c-.093-.5-.223-1.008-.354-1.494h0a2.579,2.579,0,0,0-.279-.8.744.744,0,0,0-.819-.448L24.638,8.731a.727.727,0,0,0-.614.709,11.441,11.441,0,0,0,.149,2.371,10.752,10.752,0,0,0,2.1,4.8c-3.052,1.7-5.043,4.089-5.248,6.441v.243a.466.466,0,0,1-.261.3h-.3a32.207,32.207,0,0,0-5.025,1.867,9.449,9.449,0,0,0-4.932,4.761,10.633,10.633,0,0,0-.67,3.192q0,.644,0,1.288a10.764,10.764,0,0,0,.186,1.456c.074.485.149,1.008.242,1.494s.13.915.186,1.382a3.742,3.742,0,0,1,0,.8,3.746,3.746,0,0,1,0,.653,1.507,1.507,0,0,1-.093.635h0A3.89,3.89,0,0,1,9.9,42.317v.093a2.667,2.667,0,0,1-.372.429l-.428.373h0a.5.5,0,0,0-.2.355A.468.468,0,0,0,9,43.96l.112.093a4.083,4.083,0,0,0,3.015.5l.447-.093a5.072,5.072,0,0,0,1.545-.653,5.142,5.142,0,0,0,.465-.392h0a.653.653,0,0,0,.149-.187h0a3.739,3.739,0,0,0,.3-.616V42.8c-.186.6-.354,1.195-.5,1.867a25.506,25.506,0,0,0-.521,7.878,12.89,12.89,0,0,0,.186,1.68,7.446,7.446,0,0,0,.149,1.363,10.545,10.545,0,0,0,.3,1.867,12.316,12.316,0,0,0,.316,1.307.5.5,0,0,0,.484.355h.13a.486.486,0,0,0,.354-.616c-.093-.355-.2-.784-.3-1.232s-.2-1.1-.3-1.736v-.093a25.6,25.6,0,0,1-.2-3.136,23.011,23.011,0,0,1,1.135-7.281,14.966,14.966,0,0,1,.6-1.624,18.543,18.543,0,0,1,1.135-2.278,14.084,14.084,0,0,1,.856-1.363A15.243,15.243,0,0,1,20.6,37.65l.279-.28a12,12,0,0,1,8.431-3.734,11.7,11.7,0,0,1,7.556,2.875l.279.243.651.6c.261.261.633.709,1,1.158l.335.411c.465.579.856,1.1.856,1.1l.261.411a22.215,22.215,0,0,1,3.071,11.78.578.578,0,0,0,.428.541.5.5,0,0,0,.577-.5,23.377,23.377,0,0,0-2.9-11.818c-.167-.3-.354-.6-.54-.877l-.428-.672-.2-.28a5.4,5.4,0,0,1-.54-1.195,5.617,5.617,0,0,1-.316-3.024l.112-.28a.579.579,0,0,1,.149-.28,2.11,2.11,0,0,1,.242-.373l.13-.149.112-.112a3.014,3.014,0,0,1,.763-.5,2.358,2.358,0,0,1,.726-.224h0a3.915,3.915,0,0,1,1.321,0h1.061a14.324,14.324,0,0,0,2.308-.168,6.189,6.189,0,0,0,3.722-1.7,15.572,15.572,0,0,0,1.861-2.67c1.172-1.867,2.345-3.622,3.61-5.358a9.321,9.321,0,0,1,2.14-2.2h0l.223-.149.186-.112.819-.392a.449.449,0,0,0-.093-.3A.539.539,0,0,0,58.4,19.2h-.5a.371.371,0,0,1-.242,0h0a.374.374,0,0,1-.13-.3h0a.485.485,0,0,1,.372-.429M18.738,33.58q0,.075,0,.149c-.5.8-.968,1.624-1.4,2.446a27.2,27.2,0,0,0-1.861,5.134h0a16.426,16.426,0,0,0,0-3.174c0-.709-.112-1.456-.112-2.184a8.99,8.99,0,0,1,0-1.232V34.4A2.344,2.344,0,0,1,18.4,32.833h0a.615.615,0,0,1,.242.205.524.524,0,0,1,0,.523" transform="translate(814.909 56.935)" fill="#fff"/>
  </g>
</svg>
